<svg width="582" height="220" viewBox="0 0 582 220" fill="none" xmlns="http://www.w3.org/2000/svg">
<g clip-path="url(#clip0_5_288)">
<mask id="mask0_5_288" style="mask-type:luminance" maskUnits="userSpaceOnUse" x="0" y="10" width="200" height="200">
<path d="M200 10H0V210H200V10Z" fill="white"/>
</mask>
<g mask="url(#mask0_5_288)">
<path d="M166.666 52.7084C166.666 51.5917 165.483 51.3167 165.016 52.15C149.891 79.7917 141.15 95.425 133.6 109.934H42.8665C41.6915 109.934 41.2165 111.609 42.1583 112.166C79.7251 128.916 134.058 154.325 164.533 168.275C165.241 168.559 166.658 167.716 166.658 167.159L166.666 52.7084Z" fill="#FF5500"/>
</g>
</g>
<path d="M251.969 172H237.812L236.75 146.188C236.75 145.292 236.896 144.021 237.188 142.375L237.375 141.281H237.25C237.167 141.656 236.917 142.406 236.5 143.531C236.104 144.635 235.708 145.615 235.312 146.469L223.375 172H207.875L206.656 127.188H220.875L219.594 153.688C219.51 154.979 219.292 156.688 218.938 158.812H219.125C219.271 158.25 219.552 157.396 219.969 156.25C220.385 155.083 220.75 154.167 221.062 153.5L233.281 127.188H247.938L248.188 153.875C248.188 154.458 248.146 155.302 248.062 156.406C248 157.51 247.938 158.292 247.875 158.75H248L249.594 153.688L258.875 127.188H272.781L251.969 172ZM281.844 172H268.344L277.812 127.188H291.312L281.844 172ZM338.531 145.375C338.531 150.688 337.417 155.396 335.188 159.5C332.979 163.604 329.865 166.719 325.844 168.844C321.844 170.948 317.104 172 311.625 172H290.719L300.188 127.188H318.031C324.781 127.188 329.885 128.781 333.344 131.969C336.802 135.156 338.531 139.625 338.531 145.375ZM324.188 146.406C324.188 143.51 323.427 141.344 321.906 139.906C320.385 138.469 318.052 137.75 314.906 137.75H311.438L306.469 161.438H311C315.125 161.438 318.354 160.094 320.688 157.406C323.021 154.698 324.188 151.031 324.188 146.406ZM382.969 140.312C381.427 139.417 379.656 138.708 377.656 138.188C375.677 137.646 373.75 137.375 371.875 137.375C367.125 137.375 363.406 138.729 360.719 141.438C358.052 144.125 356.719 147.844 356.719 152.594C356.719 155.594 357.458 157.917 358.938 159.562C360.417 161.208 362.51 162.031 365.219 162.031C366.177 162.031 367.115 161.917 368.031 161.688L369.438 155.156H361.188L363.375 144.938H385.125L380 169.062C374.917 171.542 369.333 172.781 363.25 172.781C356.646 172.781 351.51 171.042 347.844 167.562C344.198 164.083 342.375 159.167 342.375 152.812C342.375 147.771 343.604 143.208 346.062 139.125C348.542 135.042 352 131.906 356.438 129.719C360.896 127.531 366.125 126.438 372.125 126.438C376.292 126.438 380.781 127.188 385.594 128.688L382.969 140.312ZM422.406 137.75H408L406.656 144.281H420.156L417.938 154.844H404.438L403.031 161.438H418.438L416.188 172H387.281L396.75 127.188H424.656L422.406 137.75ZM465.156 137.75H452.469L445.25 172H431.688L438.906 137.75H426.375L428.594 127.188H467.375L465.156 137.75Z" fill="#FF5500"/>
<path d="M226.859 63.625V75.7188H246.828V91.5625H226.859V115H206.609V47.7812H248.75V63.625H226.859ZM300.688 115L297.734 102.625H277.672L274.484 115H252.594L275.75 47.7812H300.875L322.672 115H300.688ZM287.938 62.4062H287.469C287.406 63.1562 287.188 64.3906 286.812 66.1094C286.438 67.8281 284.547 75.2031 281.141 88.2344H293.984L289.297 69.9531C288.641 67.2656 288.188 64.75 287.938 62.4062ZM380.562 113.172C375 115.172 368.578 116.172 361.297 116.172C354.141 116.172 347.969 114.812 342.781 112.094C337.594 109.344 333.625 105.453 330.875 100.422C328.156 95.3594 326.797 89.5312 326.797 82.9375C326.797 75.8438 328.328 69.5312 331.391 64C334.453 58.4688 338.781 54.2031 344.375 51.2031C349.969 48.1719 356.406 46.6562 363.688 46.6562C369.5 46.6562 375.125 47.3594 380.562 48.7656V67.4688C378.688 66.3438 376.453 65.4688 373.859 64.8438C371.266 64.2188 368.641 63.9062 365.984 63.9062C360.484 63.9062 356.141 65.4844 352.953 68.6406C349.797 71.7969 348.219 76.0781 348.219 81.4844C348.219 86.8594 349.797 91.1094 352.953 94.2344C356.141 97.3281 360.391 98.875 365.703 98.875C370.609 98.875 375.562 97.625 380.562 95.125V113.172ZM391.016 115V47.7812H432.875V63.625H411.266V73.4219H431.562V89.2656H411.266V99.1562H434.422V115H391.016ZM443.984 115V47.7812H464.234V115H443.984ZM511.438 63.625V115H491.094V63.625H472.297V47.7812H530.469V63.625H511.438Z" fill="black"/>
<defs>
<clipPath id="clip0_5_288">
<rect width="200" height="200" fill="white" transform="translate(0 10)"/>
</clipPath>
</defs>
</svg>
